<region>
sample=../Samples/Flutes/flutes-stc-rr1-c3.wav
lokey=c4
hikey=c#4
pitch_keycenter=c4

<region>
sample=../Samples/Flutes/flutes-stc-rr1-d#3.wav
lokey=d4
hikey=e4
pitch_keycenter=d#4

<region>
sample=../Samples/Flutes/flutes-stc-rr1-f#3.wav
lokey=f4
hikey=g4
pitch_keycenter=f#4
volume=-2

<region>
sample=../Samples/Flutes/flutes-stc-rr1-a3.wav
lokey=g#4
hikey=a#4
pitch_keycenter=a4

<region>
sample=../Samples/Flutes/flutes-stc-rr1-c4.wav
lokey=b4
hikey=c#5
pitch_keycenter=c5
volume=1

<region>
sample=../Samples/Flutes/flutes-stc-rr1-d#4.wav
lokey=d5
hikey=e5
pitch_keycenter=d#5
volume=2

<region>
sample=../Samples/Flutes/flutes-stc-rr1-f#4.wav
lokey=f5
hikey=g5
pitch_keycenter=f#5

<region>
sample=../Samples/Flutes/flutes-stc-rr1-a4.wav
lokey=g#5
hikey=a#5
pitch_keycenter=a5
volume=-1

<region>
sample=../Samples/Flutes/flutes-stc-rr1-c5.wav
lokey=b5
hikey=c#6
pitch_keycenter=c6

<region>
sample=../Samples/Flutes/flutes-stc-rr1-d#5.wav
lokey=d6
hikey=e6
pitch_keycenter=d#6

<region>
sample=../Samples/Flutes/flutes-stc-rr1-f#5.wav
lokey=f6
hikey=g6
pitch_keycenter=f#6

<region>
sample=../Samples/Flutes/flutes-stc-rr1-a5.wav
lokey=g#6
hikey=c7
pitch_keycenter=a6
